 <svg version="1.1" xmlns="http://www.w3.org/2000/svg" xmlns:xlink="http://www.w3.org/1999/xlink" width="1000" height="1000"><defs/><g><path fill="none" stroke="black" paint-order="fill stroke markers" d=" M 950 500 A 450 450 0 1 1 949.9997750000188 499.55000007499973" stroke-miterlimit="10" stroke-width="14.25" stroke-dasharray=""/><path fill="none" stroke="black" paint-order="fill stroke markers" d=" M 391.7852435536812 843.3505009276437 A 360 360 0 0 1 206.89446750361742 709.0194890913573" stroke-miterlimit="10" stroke-width="14.25" stroke-dasharray=""/><path fill="none" stroke="black" paint-order="fill stroke markers" d=" M 140.01406993550086 503.182790536229 A 360 360 0 0 1 614.2687838052846 158.61657180281713" stroke-miterlimit="10" stroke-width="14.25" stroke-dasharray=""/><path fill="none" stroke="black" paint-order="fill stroke markers" d=" M 789.3639378197198 285.83064764195285 A 360 360 0 0 1 859.9859300644991 503.1827905362288" stroke-miterlimit="10" stroke-width="14.25" stroke-dasharray=""/><path fill="none" stroke="black" paint-order="fill stroke markers" d=" M 793.1055324963825 709.0194890913574 A 360 360 0 0 1 608.2147564463188 843.3505009276437" stroke-miterlimit="10" stroke-width="14.25" stroke-dasharray=""/><path fill="none" stroke="black" paint-order="fill stroke markers" d=" M 391.78524355368125 843.3505009276438 A 120.34285714285714 120.34285714285714 0 0 1 608.2147564463187 843.3505009276438" stroke-miterlimit="10" stroke-width="14.25" stroke-dasharray=""/><path fill="none" stroke="black" paint-order="fill stroke markers" d=" M 734.7455479681474 791.2461179749811 A 23.142857142857142 23.142857142857142 0 1 1 734.7455363967199 791.2229751216953" stroke-miterlimit="10" stroke-width="14.25" stroke-dasharray=""/><path fill="none" stroke="black" paint-order="fill stroke markers" d=" M 793.1055324963824 709.0194890913574 A 120.34285714285714 120.34285714285714 0 0 1 859.9859300644991 503.1827905362287" stroke-miterlimit="10" stroke-width="14.25" stroke-dasharray=""/><path fill="none" stroke="black" paint-order="fill stroke markers" d=" M 789.3639378197199 285.83064764195296 A 120.34285714285714 120.34285714285714 0 0 1 614.2687838052844 158.61657180281705" stroke-miterlimit="10" stroke-width="14.25" stroke-dasharray=""/><path fill="none" stroke="black" paint-order="fill stroke markers" d=" M 523.1428571428571 140 A 23.142857142857142 23.142857142857142 0 1 1 523.1428455714296 139.97685714671428" stroke-miterlimit="10" stroke-width="14.25" stroke-dasharray=""/><path fill="none" stroke="black" paint-order="fill stroke markers" d=" M 380.96873774613823 208.75388202501892 A 92.57142857142857 92.57142857142857 0 1 1 380.9686914604278 208.66131061187602" stroke-miterlimit="10" stroke-width="14.25" stroke-dasharray=""/><path fill="none" stroke="black" paint-order="fill stroke markers" d=" M 140.01406993550086 503.1827905362287 A 120.34285714285714 120.34285714285714 0 0 1 206.89446750361765 709.0194890913574" stroke-miterlimit="10" stroke-width="14.25" stroke-dasharray=""/><path fill="none" stroke="black" paint-order="fill stroke markers" d=" M 460.6497162395016 782.2724376710976 L 492.43263773836577 161.87068506325048" stroke-miterlimit="10" stroke-width="14.25" stroke-dasharray=""/><path fill="none" stroke="black" paint-order="fill stroke markers" d=" M 445.6013475986643 788.6538781221009 L 300.2449530025242 300.56402701719475" stroke-miterlimit="10" stroke-width="14.25" stroke-dasharray=""/><path fill="none" stroke="black" paint-order="fill stroke markers" d=" M 429.798015853124 798.2550017282322 L 238.03624322896783 658.9319186710884" stroke-miterlimit="10" stroke-width="14.25" stroke-dasharray=""/><path fill="none" stroke="black" paint-order="fill stroke markers" d=" M 235.22730691804756 284.53264057767433 L 141.05411959782026 503.3325593931253" stroke-miterlimit="10" stroke-width="14.25" stroke-dasharray=""/><path fill="none" stroke="black" paint-order="fill stroke markers" d=" M 254.02227597336827 294.7063484245457 L 167.88160006640425 510.5576938639172" stroke-miterlimit="10" stroke-width="14.25" stroke-dasharray=""/></g></svg>