 <svg version="1.1" xmlns="http://www.w3.org/2000/svg" xmlns:xlink="http://www.w3.org/1999/xlink" width="1000" height="1000"><defs/><g><path fill="none" stroke="black" paint-order="fill stroke markers" d=" M 950 500 A 450 450 0 1 1 949.9997750000188 499.55000007499973" stroke-miterlimit="10" stroke-width="12.25" stroke-dasharray=""/><path fill="none" stroke="black" paint-order="fill stroke markers" d=" M 485.6153782201268 859.7125 A 360 360 0 0 1 152.1700308521995 407.1866789591056" stroke-miterlimit="10" stroke-width="12.25" stroke-dasharray=""/><path fill="none" stroke="black" paint-order="fill stroke markers" d=" M 245.70632159508466 245.1770710408942 A 360 360 0 0 1 485.6153782201269 140.28750000000002" stroke-miterlimit="10" stroke-width="12.25" stroke-dasharray=""/><path fill="none" stroke="black" paint-order="fill stroke markers" d=" M 514.3846217798733 140.28750000000002 A 360 360 0 0 1 514.3846217798732 859.7125" stroke-miterlimit="10" stroke-width="12.25" stroke-dasharray=""/><path fill="none" stroke="black" paint-order="fill stroke markers" d=" M 485.6153782201269 859.7125 A 81 81 0 1 1 514.3846217798731 859.7125" stroke-miterlimit="10" stroke-width="12.25" stroke-dasharray=""/><path fill="none" stroke="black" paint-order="fill stroke markers" d=" M 520.25 820.5 A 20.25 20.25 0 1 1 520.2499898750009 820.479750003375" stroke-miterlimit="10" stroke-width="12.25" stroke-dasharray=""/><path fill="none" stroke="black" paint-order="fill stroke markers" d=" M 818.2909606369362 637 A 81 81 0 1 1 818.2909201369396 636.9190000135" stroke-miterlimit="10" stroke-width="12.25" stroke-dasharray=""/><path fill="#000000" stroke="none" paint-order="stroke fill markers" d=" M 697.2631493948116 655.7987172965625 A 9.125 9.125 0 1 1 697.263144832312 655.7895922980833"/><path fill="#000000" stroke="none" paint-order="stroke fill markers" d=" M 700.8413737627801 610.6875 A 9.125 9.125 0 1 1 700.8413692002805 610.6783750015209"/><path fill="#000000" stroke="none" paint-order="stroke fill markers" d=" M 738.1197217532589 585.0330581486176 A 9.125 9.125 0 1 1 738.1197171907593 585.0239331501384"/><path fill="none" stroke="black" paint-order="fill stroke markers" d=" M 818.2909606369362 363.00000000000006 A 81 81 0 1 1 818.2909201369396 362.9190000135" stroke-miterlimit="10" stroke-width="12.25" stroke-dasharray=""/><path fill="#000000" stroke="none" paint-order="stroke fill markers" d=" M 738.119721753259 414.96694185138244 A 9.125 9.125 0 1 1 738.1197171907594 414.95781685290325"/><path fill="#000000" stroke="none" paint-order="stroke fill markers" d=" M 700.8413737627801 389.31250000000006 A 9.125 9.125 0 1 1 700.8413692002805 389.30337500152086"/><path fill="#000000" stroke="none" paint-order="stroke fill markers" d=" M 697.2631493948116 344.20128270343764 A 9.125 9.125 0 1 1 697.263144832312 344.19215770495845"/><path fill="none" stroke="black" paint-order="fill stroke markers" d=" M 757.5409606369362 363.00000000000006 A 20.25 20.25 0 1 1 757.5409505119371 362.97975000337505" stroke-miterlimit="10" stroke-width="12.25" stroke-dasharray=""/><path fill="none" stroke="black" paint-order="fill stroke markers" d=" M 514.3846217798732 140.2875 A 81 81 0 1 1 485.61537822012696 140.2875" stroke-miterlimit="10" stroke-width="12.25" stroke-dasharray=""/><path fill="none" stroke="black" paint-order="fill stroke markers" d=" M 245.70632159508446 245.17707104089436 A 105.3 105.3 0 0 1 152.17003085219952 407.1866789591054" stroke-miterlimit="10" stroke-width="12.25" stroke-dasharray=""/><path fill="#000000" stroke="none" paint-order="stroke fill markers" d=" M 242.11941360558131 289.7321514129407 A 9.125 9.125 0 1 1 242.1194090430817 289.7230264144615"/><path fill="#000000" stroke="none" paint-order="stroke fill markers" d=" M 232.79794428748022 340.46249999999986 A 9.125 9.125 0 1 1 232.7979397249806 340.45337500152067"/><path fill="#000000" stroke="none" paint-order="stroke fill markers" d=" M 193.52490832729757 373.90030352360213 A 9.125 9.125 0 1 1 193.52490376479795 373.89117852512294"/><path fill="none" stroke="black" paint-order="fill stroke markers" d=" M 160.25 499.9999999999998 A 20.25 20.25 0 1 1 160.24998987500084 499.97975000337476" stroke-miterlimit="10" stroke-width="12.25" stroke-dasharray=""/><path fill="none" stroke="black" paint-order="fill stroke markers" d=" M 269.23085463760196 679.9999999999998 A 81 81 0 1 1 269.2308141376053 679.9190000134997" stroke-miterlimit="10" stroke-width="12.25" stroke-dasharray=""/><path fill="#000000" stroke="none" paint-order="stroke fill markers" d=" M 205.65209352127926 628.0330581486173 A 9.125 9.125 0 1 1 205.65208895877964 628.0239331501382"/><path fill="#000000" stroke="none" paint-order="stroke fill markers" d=" M 242.93044151175806 653.6874999999998 A 9.125 9.125 0 1 1 242.93043694925845 653.6783750015206"/><path fill="none" stroke="black" paint-order="fill stroke markers" d=" M 510.0620709231133 699.62740063468 C 589.9290831106662 699.7517146592137 430.8166288582288 300.16802567238193 510.6836410457817 300.29233969691563" stroke-miterlimit="10" stroke-width="12.25" stroke-dasharray=""/><path fill="none" stroke="black" paint-order="fill stroke markers" d=" M 718.6228468024328 370.8462746486484 C 139.51171875 314.0234375 113.70761496420131 745.2350798269842 64.81965792973034 614.5341428378591" stroke-miterlimit="10" stroke-width="12.25" stroke-dasharray=""/><path fill="none" stroke="black" paint-order="fill stroke markers" d=" M 551.977373549879 282.1236882264435 C 468.17602932845415 352.2382274132027 986.3514137050997 631.0158701468084 902.5500694836749 701.1304093335676" stroke-miterlimit="10" stroke-width="12.25" stroke-dasharray=""/><path fill="none" stroke="black" paint-order="fill stroke markers" d=" M 481.8572492198615 298.9420077913514 C 357.59780463416854 270.38423230184003 463.32781635799773 948.7970062093275 339.0683717723048 920.2392307198162" stroke-miterlimit="10" stroke-width="12.25" stroke-dasharray=""/></g></svg>