<svg width="952" height="952" viewBox="0 0 952 952" fill="none" xmlns="http://www.w3.org/2000/svg">
<circle cx="476" cy="476" r="476" fill="white"/>
<path d="M238 747.97V747.97C392.528 604.36 396.12 360.888 245.895 212.782L240 206.97" stroke="black" stroke-width="16"/>
<path d="M927 476C927 595.328 879.605 709.77 795.238 794.158C710.871 878.546 596.44 925.97 477.112 926C357.785 926.03 243.33 878.663 158.921 794.317C74.512 709.971 27.0597 595.553 27 476.225C26.9403 356.897 74.2782 242.431 158.603 158.001C242.928 73.5706 357.335 26.0896 476.662 26.0001C595.99 25.9106 710.468 73.2199 794.919 157.524C879.371 241.827 926.88 356.222 927 475.55" stroke="black" stroke-width="16" stroke-miterlimit="10"/>
<path d="M462.615 835.712C408.685 833.556 355.93 819.3 308.253 794.001C260.577 768.701 219.199 733.005 187.182 689.554C155.164 646.102 133.327 596.008 123.285 542.977C113.244 489.946 115.255 435.335 129.17 383.187" stroke="black" stroke-width="16" stroke-miterlimit="10"/>
<path d="M222.706 221.177C286.676 157.341 372.315 119.899 462.615 116.288" stroke="black" stroke-width="16" stroke-miterlimit="10"/>
<path d="M491.385 116.288C584.298 120.003 672.169 159.526 736.594 226.579C801.019 293.632 837 383.013 837 476C837 568.987 801.019 658.368 736.594 725.421C672.169 792.474 584.298 831.997 491.385 835.713" stroke="black" stroke-width="16" stroke-miterlimit="10"/>
<path d="M462.615 835.713C442.705 832.119 424.859 821.205 412.591 805.117C400.322 789.028 394.519 768.931 396.323 748.779C398.126 728.627 407.406 709.88 422.337 696.226C437.268 682.572 456.768 675 477 675C497.232 675 516.732 682.572 531.663 696.226C546.594 709.88 555.874 728.627 557.677 748.779C559.481 768.931 553.678 789.028 541.409 805.117C529.141 821.205 511.296 832.119 491.385 835.713" stroke="black" stroke-width="16" stroke-miterlimit="10"/>
<path d="M497.25 796.5C497.25 801.87 495.117 807.02 491.32 810.817C487.524 814.615 482.375 816.749 477.005 816.75C471.635 816.751 466.485 814.62 462.686 810.824C458.888 807.029 456.752 801.88 456.75 796.51C456.747 791.14 458.877 785.989 462.672 782.19C466.467 778.391 471.615 776.254 476.985 776.25C482.354 776.246 487.506 778.375 491.306 782.169C495.106 785.962 497.244 791.11 497.25 796.48" stroke="black" stroke-width="16" stroke-miterlimit="10"/>
<path d="M795.291 613C795.291 634.479 786.76 655.079 771.574 670.269C756.388 685.458 735.79 693.995 714.311 694C692.832 694.005 672.23 685.479 657.037 670.297C641.843 655.115 633.302 634.52 633.291 613.041C633.28 591.562 641.801 570.958 656.98 555.76C672.158 540.563 692.751 532.016 714.23 532C735.709 531.984 756.315 540.5 771.516 555.674C786.718 570.849 795.269 591.44 795.291 612.919" stroke="black" stroke-width="16" stroke-miterlimit="10"/>
<path d="M658.104 636.353C658.104 637.646 657.591 638.886 656.677 639.8C655.763 640.714 654.523 641.228 653.23 641.228C651.938 641.229 650.698 640.715 649.783 639.802C648.869 638.888 648.355 637.648 648.354 636.356C648.353 635.063 648.866 633.823 649.78 632.908C650.693 631.994 651.933 631.479 653.225 631.478C654.518 631.477 655.758 631.99 656.673 632.903C657.588 633.816 658.103 635.056 658.104 636.348" fill="black"/>
<path d="M662.549 580.313C662.549 581.605 662.036 582.845 661.122 583.759C660.208 584.673 658.968 585.187 657.676 585.188C656.383 585.188 655.143 584.675 654.229 583.761C653.314 582.847 652.8 581.608 652.799 580.315C652.799 579.022 653.312 577.782 654.225 576.867C655.139 575.953 656.378 575.438 657.671 575.438C658.963 575.437 660.204 575.949 661.119 576.862C662.033 577.776 662.548 579.015 662.549 580.308" fill="black"/>
<path d="M708.859 548.443C708.859 549.735 708.346 550.975 707.432 551.889C706.518 552.803 705.278 553.317 703.986 553.318C702.693 553.318 701.453 552.805 700.539 551.891C699.624 550.977 699.11 549.738 699.109 548.445C699.109 547.152 699.622 545.912 700.535 544.997C701.449 544.083 702.688 543.568 703.981 543.568C705.274 543.567 706.514 544.079 707.429 544.992C708.344 545.906 708.858 547.145 708.859 548.438" fill="black"/>
<path d="M795.291 339C795.291 360.479 786.76 381.079 771.574 396.268C756.388 411.458 735.79 419.995 714.311 420C692.832 420.005 672.23 411.479 657.037 396.297C641.843 381.115 633.302 360.519 633.291 339.04C633.28 317.561 641.801 296.958 656.98 281.76C672.158 266.563 692.751 258.016 714.23 258C735.709 257.984 756.315 266.499 771.516 281.674C786.718 296.849 795.269 317.44 795.291 338.919" stroke="black" stroke-width="16" stroke-miterlimit="10"/>
<path d="M708.859 403.557C708.859 404.85 708.346 406.09 707.432 407.004C706.518 407.918 705.278 408.432 703.986 408.432C702.693 408.433 701.453 407.92 700.539 407.006C699.624 406.092 699.11 404.853 699.109 403.56C699.109 402.267 699.622 401.027 700.535 400.112C701.449 399.198 702.688 398.683 703.981 398.682C705.274 398.681 706.514 399.194 707.429 400.107C708.344 401.021 708.858 402.26 708.859 403.553" fill="black"/>
<path d="M662.549 371.687C662.549 372.98 662.036 374.22 661.122 375.134C660.208 376.048 658.968 376.562 657.676 376.562C656.383 376.563 655.143 376.05 654.229 375.136C653.314 374.222 652.8 372.983 652.799 371.69C652.799 370.397 653.312 369.157 654.225 368.242C655.139 367.328 656.378 366.813 657.671 366.812C658.963 366.811 660.204 367.324 661.119 368.237C662.033 369.151 662.548 370.39 662.549 371.683" fill="black"/>
<path d="M658.104 315.647C658.104 316.939 657.591 318.179 656.677 319.093C655.763 320.008 654.523 320.521 653.23 320.522C651.938 320.522 650.698 320.009 649.783 319.095C648.869 318.181 648.355 316.942 648.354 315.649C648.353 314.356 648.866 313.116 649.78 312.202C650.693 311.287 651.933 310.773 653.225 310.772C654.518 310.771 655.758 311.283 656.673 312.197C657.588 313.11 658.103 314.349 658.104 315.642" fill="black"/>
<path d="M734.541 339C734.541 344.37 732.408 349.52 728.612 353.317C724.815 357.115 719.666 359.249 714.296 359.25C708.926 359.251 703.776 357.12 699.977 353.324C696.179 349.529 694.044 344.38 694.041 339.01C694.038 333.64 696.168 328.489 699.963 324.69C703.758 320.891 708.906 318.754 714.276 318.75C719.645 318.746 724.797 320.875 728.597 324.669C732.398 328.462 734.536 333.61 734.541 338.98" stroke="black" stroke-width="16" stroke-miterlimit="10"/>
<path d="M491.385 116.288C511.296 119.881 529.141 130.795 541.409 146.883C553.678 162.972 559.481 183.069 557.677 203.221C555.874 223.373 546.594 242.12 531.663 255.774C516.732 269.428 497.232 277 477 277C456.768 277 437.268 269.428 422.337 255.774C407.406 242.12 398.126 223.373 396.323 203.221C394.519 183.069 400.322 162.972 412.591 146.883C424.859 130.795 442.705 119.881 462.615 116.288" stroke="black" stroke-width="16" stroke-miterlimit="10"/>
<path d="M222.706 221.177C233.128 237.437 238.878 256.249 239.326 275.557C239.774 294.865 234.903 313.924 225.246 330.65C215.59 347.376 201.52 361.123 184.574 370.389C167.629 379.655 148.462 384.082 129.17 383.187" stroke="black" stroke-width="16" stroke-miterlimit="10"/>
<path d="M227.456 263.699C227.456 264.991 226.943 266.231 226.029 267.145C225.115 268.06 223.875 268.573 222.582 268.574C221.29 268.574 220.05 268.061 219.135 267.147C218.221 266.233 217.707 264.994 217.706 263.701C217.706 262.408 218.218 261.168 219.132 260.254C220.045 259.339 221.285 258.825 222.578 258.824C223.87 258.823 225.11 259.335 226.025 260.249C226.94 261.162 227.455 262.401 227.456 263.694" fill="black"/>
<path d="M216.59 322.837C216.59 324.13 216.076 325.37 215.162 326.284C214.248 327.198 213.009 327.712 211.716 327.712C210.423 327.713 209.183 327.2 208.269 326.286C207.354 325.372 206.84 324.133 206.84 322.84C206.839 321.547 207.352 320.307 208.265 319.392C209.179 318.478 210.418 317.963 211.711 317.962C213.004 317.961 214.244 318.474 215.159 319.387C216.074 320.301 216.588 321.54 216.59 322.833" fill="black"/>
<path d="M543.75 358.875C543.75 360.168 543.237 361.408 542.323 362.322C541.409 363.236 540.169 363.75 538.876 363.75C537.584 363.75 536.344 363.237 535.429 362.323C534.515 361.41 534.001 360.17 534 358.877C533.999 357.585 534.512 356.345 535.426 355.43C536.339 354.515 537.579 354.001 538.871 354C540.164 353.999 541.404 354.512 542.319 355.425C543.234 356.338 543.749 357.577 543.75 358.87" fill="black"/>
<path d="M530 343C530 345.652 528.947 348.195 527.072 350.07C525.197 351.945 522.654 352.999 520.003 353C517.351 353.001 514.807 351.948 512.932 350.074C511.056 348.199 510.001 345.657 510 343.005C509.999 340.353 511.051 337.81 512.925 335.933C514.798 334.057 517.341 333.002 519.992 333C522.644 332.998 525.188 334.049 527.065 335.923C528.942 337.796 529.997 340.338 530 342.99" fill="black"/>
<path d="M530 343C530 345.652 528.947 348.195 527.072 350.07C525.197 351.945 522.654 352.999 520.003 353C517.351 353.001 514.807 351.948 512.932 350.074C511.056 348.199 510.001 345.657 510 343.005C509.999 340.353 511.051 337.81 512.925 335.933C514.798 334.057 517.341 333.002 519.992 333C522.644 332.998 525.188 334.049 527.065 335.923C528.942 337.796 529.997 340.338 530 342.99" fill="black"/>
<path d="M524 377C524 382.303 521.894 387.39 518.144 391.14C514.394 394.891 509.308 396.999 504.005 397C498.702 397.001 493.615 394.896 489.863 391.148C486.112 387.399 484.003 382.313 484 377.01C483.997 371.707 486.101 366.619 489.849 362.867C493.597 359.114 498.682 357.004 503.985 357C509.288 356.996 514.376 359.099 518.13 362.845C521.883 366.592 523.995 371.677 524 376.98" fill="black"/>
<path d="M170.807 361.817C170.807 363.11 170.294 364.35 169.38 365.264C168.466 366.178 167.226 366.692 165.934 366.692C164.641 366.693 163.401 366.18 162.487 365.266C161.572 364.352 161.058 363.113 161.057 361.82C161.057 360.527 161.57 359.287 162.483 358.372C163.397 357.458 164.636 356.943 165.929 356.942C167.221 356.941 168.462 357.454 169.376 358.367C170.291 359.281 170.806 360.52 170.807 361.813" fill="black"/>
<path d="M137.25 476C137.25 481.37 135.117 486.52 131.321 490.317C127.524 494.115 122.375 496.249 117.005 496.25C111.635 496.251 106.485 494.12 102.686 490.324C98.888 486.529 96.7527 481.38 96.75 476.01C96.7473 470.64 98.8775 465.489 102.672 461.69C106.467 457.891 111.615 455.754 116.985 455.75C122.355 455.746 127.506 457.875 131.306 461.669C135.107 465.462 137.245 470.61 137.25 475.98" stroke="black" stroke-width="16" stroke-miterlimit="10"/>
<path d="M246.231 656C246.231 677.479 237.7 698.079 222.514 713.269C207.328 728.458 186.73 736.995 165.251 737C143.772 737.005 123.17 728.479 107.977 713.297C92.783 698.115 84.2416 677.52 84.2308 656.041C84.2201 634.562 92.7409 613.958 107.919 598.76C123.098 583.563 143.691 575.016 165.17 575C186.649 574.984 207.255 583.5 222.456 598.674C237.658 613.849 246.209 634.44 246.231 655.919" stroke="black" stroke-width="16" stroke-miterlimit="10"/>
<path d="M480 460C480 489.169 468.415 517.144 447.792 537.772C427.169 558.4 399.197 569.993 370.028 570C340.859 570.007 312.881 558.429 292.248 537.811C271.614 517.193 260.015 489.224 260 460.055C259.986 430.886 271.557 402.905 292.17 382.267C312.783 361.628 340.749 350.022 369.918 350C399.087 349.978 427.07 361.543 447.714 382.15C468.357 402.758 479.971 430.721 480 459.89" stroke="black" stroke-width="16" stroke-miterlimit="10"/>
<path d="M180.412 591.443C180.412 592.735 179.899 593.975 178.985 594.889C178.071 595.803 176.831 596.317 175.538 596.318C174.246 596.318 173.006 595.805 172.091 594.891C171.177 593.977 170.663 592.738 170.662 591.445C170.661 590.152 171.174 588.912 172.088 587.997C173.001 587.083 174.241 586.568 175.533 586.568C176.826 586.567 178.066 587.079 178.981 587.992C179.896 588.906 180.411 590.145 180.412 591.438" fill="black"/>
<path d="M226.722 623.313C226.722 624.605 226.209 625.845 225.295 626.759C224.381 627.673 223.141 628.187 221.848 628.188C220.556 628.188 219.316 627.675 218.401 626.761C217.487 625.847 216.973 624.608 216.972 623.315C216.972 622.022 217.484 620.782 218.398 619.867C219.311 618.953 220.551 618.438 221.844 618.438C223.136 618.437 224.376 618.949 225.291 619.862C226.206 620.776 226.721 622.015 226.722 623.308" fill="black"/>
<path d="M487.062 675.627C566.929 675.752 407.817 276.168 487.684 276.292" stroke="black" stroke-width="16" stroke-miterlimit="10"/>
<path d="M695.324 346.094L41.8196 590.534" stroke="black" stroke-width="16" stroke-miterlimit="10"/>
<path d="M528.977 258.124C445.176 328.238 963.351 607.016 879.55 677.13" stroke="black" stroke-width="16" stroke-miterlimit="10"/>
<path d="M458.857 274.942C334.598 246.384 440.328 924.797 316.068 896.239" stroke="black" stroke-width="16" stroke-miterlimit="10"/>
<path d="M174 414L219.576 396.673C264.983 379.411 295 335.887 295 287.31L295 246L364 281V281C428.339 317.854 506.851 320.075 573.17 286.915L585 281L603 717L562 673" stroke="black" stroke-width="16"/>
<path d="M568 680V680C508.557 615.562 403.87 626.357 358.828 701.569L342.999 728L283.999 701V701C341.953 623.901 286.945 513.738 190.494 513.738L168 513.738L175.765 496.893C188.614 469.022 188.699 436.939 176 409V409" stroke="black" stroke-width="16"/>
</svg>
